<?xml version="1.0" encoding="utf-8"?>
<!-- Generator: Adobe Illustrator 27.0.0, SVG Export Plug-In . SVG Version: 6.00 Build 0)  -->
<svg version="1.1" id="svg1" xmlns:svg="http://www.w3.org/2000/svg"
	 xmlns="http://www.w3.org/2000/svg" xmlns:xlink="http://www.w3.org/1999/xlink" x="0px" y="0px" viewBox="0 0 3000 910"
	 style="enable-background:new 0 0 3000 910;" xml:space="preserve">
<style type="text/css">
	.st0{fill:#FFFFFF;}
	.st1{fill:#FFFFFF;stroke:#00427A;stroke-width:10.5;}
	.st2{fill:#00A796;}
	.st3{fill:#00427A;}
</style>
<g id="g2" transform="matrix(1.9029724,0,0,1.9057587,-264.03742,-233.93188)">
	<path id="path1" class="st0" d="M807.2,400h53c0,0,24,2,35,17c7.4,10.1,9,35.7,0,48c-13.1,17.8-35,19-35,19h-28v59h-25V400z
		 M877.2,441c0.1-22.7-45-18-45-18l0,36C832.2,459,877.1,465.1,877.2,441z M896.2,543l57-143h18l57,143h-28l-12-33h-52l-12,33H896.2
		z M980.2,489l-18-50l-18,50H980.2z M1067.2,487l-53-87h31l34.5,59l34.5-59h31l-53,87v56h-25V487z M1164.2,400h35l37.5,100l37.5-100
		h35v143h-25V439l-36,91h-23l-36-91v104h-25L1164.2,400z M1345.2,400h95v23h-68v38h64v21h-64v38h68v23h-95V400z M1472.2,543V400h25
		l59,98l0-98h25v143h-25l-59-98v98H1472.2z M1645.2,423h-44v-23h114v23h-44v120h-26V423z M1523.5,336c0,0-13.7,10.9-45.3,11.2
		c-42.4-1-60.6-22.5-72.9-57.2c-9.3-32.5-0.5-94,53.6-107.5c1.2-0.3,47.8-11.6,78.4,20.7c34.3,37.9,24,99.7,6.9,116
		c-0.1,0.4,20.1,22,20.1,22l-16.5,17.5L1523.5,336z M1503.2,314.9l-20.7-20l17.4-17.7l21.3,20.1c0,0,8.5-7.4,8.2-34.1
		c-0.2-18.7-6.2-35.2-16.5-44.1c-13.5-11.6-39.6-14.2-56.1-5.7c-14,7.2-22.2,20.5-24.9,40.6c-3.9,27,7.5,57.6,35.4,66.1
		C1480,323.8,1493.2,323.4,1503.2,314.9L1503.2,314.9z M1593.2,344V183h50c0,0,19.5-0.4,31,5c23.6,11.2,28.9,25.2,29,42.5
		c0,30.6-29,40.5-29,40.5l41,73h-32.1l-39.9-68h-19v68H1593.2z M1663.7,249c12.3-5.1,17.7-28.2-1.9-37c-8.6-3.9-37.6-3-37.6-3v43
		C1624.2,252,1656.2,254.4,1663.7,249L1663.7,249z M857.2,209h-50v-26h130v26h-50v135h-30V209z M961.2,183h28v66h72v-66h28v161h-28
		v-66h-72v66h-28V183z M1178.2,183h21l65,161h-32l-15-34h-57l-15,34h-32L1178.2,183z M1209.2,282l-20.5-55l-20.5,55H1209.2z
		 M1287.2,183h29v161h-29C1287.2,344,1287.5,183,1287.2,183L1287.2,183z"/>
	<path id="path2" class="st1" d="M264,595c0,0-51.7-2-85-35s-35-85-35-85V248c0,0,2.2-52,35-85s85-35,85-35h228c0,0,52,1.6,85,35
		s35,85,35,85v206l143,141H264z"/>
	<path id="path3" class="st2" d="M404.2,543v-85h23.7c27.7,0,31.5-1.5,37.6-9.5c6-7.9,8.7-12.9,8.8-36.3c0-12,0-24.2,0-24.2
		l147.7,155H404.2z"/>
	<path id="path4" class="st3" d="M244.5,538.8c-21.9-7.1-38.2-23.3-45.7-45.4c-2.8-8.3-3.1-11-2.7-53.4c0.2-17.8,0.4-52.5,0-52h85
		v23.7c0,25.5,1,28.7,8.5,36.8c6.6,7.1,12.4,9.5,35.4,9.5h26.1v85h-50.3C257.6,543,251,540.9,244.5,538.8L244.5,538.8z M196.2,306.8
		c0-45.5,0.2-68,2.5-76.1c6.1-21.7,22.2-38.9,43.9-46.9c7.5-2.8,10.5-3.8,57.6-3.8h51v85h-24.8c-25.9,0-28.9,1-36.7,8.8
		c-7.5,7.5-7.4,11.2-8.5,37.3V335h-85L196.2,306.8z M474.2,335c0,0,0.1-12.2,0-27.1c-0.1-24.6-4.8-29.1-9.6-34.1
		c-4.8-5-6.7-8.7-33.4-8.8c-9.4,0-27,0-27,0v-85h42.4c24.5,0,47.6,0.6,53,1.4c13.4,2,27.1,8.9,36.7,18.3c9.2,9,18.1,26,20.1,38.3
		c0.7,4.4,2.7,20.3,2.7,35.3c0,27.5,0,61.7,0,61.7L474.2,335z"/>
</g>
</svg>
